HIERARCHY
ROOT hip
{
  OFFSET -6.84061 85.4448 2.99648
  CHANNELS 6 Xposition Yposition Zposition Zrotation Xrotation Yrotation
  JOINT abdomen
  {
    OFFSET 0 20.6881 -0.73152
    CHANNELS 3 Zrotation Xrotation Yrotation
    JOINT chest
    {
      OFFSET 0 11.7043 -0.48768
      CHANNELS 3 Zrotation Xrotation Yrotation
      JOINT neck
      {
        OFFSET 0 22.1894 -2.19456
        CHANNELS 3 Zrotation Xrotation Yrotation
        JOINT head
        {
          OFFSET -0.24384 7.07133 1.2192
          CHANNELS 3 Zrotation Xrotation Yrotation
          JOINT leftEye
          {
            OFFSET 4.14528 8.04674 8.04672
            CHANNELS 3 Zrotation Xrotation Yrotation
            End Site
            {
              OFFSET 1 0 0
            }
          }
          JOINT rightEye
          {
            OFFSET -3.6576 8.04674 8.04672
            CHANNELS 3 Zrotation Xrotation Yrotation
            End Site
            {
              OFFSET 1 0 0
            }
          }
        }
      }
      JOINT rCollar
      {
        OFFSET -2.68224 19.2634 -4.8768
        CHANNELS 3 Zrotation Xrotation Yrotation
        JOINT rShldr
        {
          OFFSET -8.77824 -1.95073 1.46304
          CHANNELS 3 Zrotation Xrotation Yrotation
          JOINT rForeArm
          {
            OFFSET -28.1742 -1.7115 0.48768
            CHANNELS 3 Zrotation Xrotation Yrotation
            JOINT rHand
            {
              OFFSET -22.5879 0.773209 7.07136
              CHANNELS 3 Zrotation Xrotation Yrotation
              JOINT rThumb1
              {
                OFFSET -1.2192 -0.487915 3.41376
                CHANNELS 3 Zrotation Xrotation Yrotation
                JOINT rThumb2
                {
                  OFFSET -3.37035 -0.52449 3.41376
                  CHANNELS 3 Zrotation Xrotation Yrotation
                  End Site
                  {
                    OFFSET -1.78271 -1.18214 1.43049
                  }
                }
              }
              JOINT rIndex1
              {
                OFFSET -7.75947 0.938293 5.60832
                CHANNELS 3 Zrotation Xrotation Yrotation
                JOINT rIndex2
                {
                  OFFSET -2.54057 -0.884171 1.56538
                  CHANNELS 3 Zrotation Xrotation Yrotation
                  End Site
                  {
                    OFFSET -1.62519 -0.234802 1.16502
                  }
                }
              }
              JOINT rMid1
              {
                OFFSET -8.24714 1.18213 3.41376
                CHANNELS 3 Zrotation Xrotation Yrotation
                JOINT rMid2
                {
                  OFFSET -3.10165 -0.590103 1.0647
                  CHANNELS 3 Zrotation Xrotation Yrotation
                  End Site
                  {
                    OFFSET -2.48547 -0.328903 0.83742
                  }
                }
              }
              JOINT rRing1
              {
                OFFSET -8.82822 0.546677 1.51678
                CHANNELS 3 Zrotation Xrotation Yrotation
                JOINT rRing2
                {
                  OFFSET -2.60934 -0.819778 -0.0198488
                  CHANNELS 3 Zrotation Xrotation Yrotation
                  End Site
                  {
                    OFFSET -2.33842 -0.294052 0.168128
                  }
                }
              }
              JOINT rPinky1
              {
                OFFSET -8.27202 -0.0477905 -0.4584
                CHANNELS 3 Zrotation Xrotation Yrotation
                JOINT rPinky2
                {
                  OFFSET -1.82734 -0.647385 -0.700984
                  CHANNELS 3 Zrotation Xrotation Yrotation
                  End Site
                  {
                    OFFSET -1.69225 -0.51767 -0.607171
                  }
                }
              }
            }
          }
        }
      }
      JOINT lCollar
      {
        OFFSET 2.68224 19.2634 -4.8768
        CHANNELS 3 Zrotation Xrotation Yrotation
        JOINT lShldr
        {
          OFFSET 8.77824 -1.95073 1.46304
          CHANNELS 3 Zrotation Xrotation Yrotation
          JOINT lForeArm
          {
            OFFSET 28.1742 -1.7115 0.48768
            CHANNELS 3 Zrotation Xrotation Yrotation
            JOINT lHand
            {
              OFFSET 22.5879 0.773209 7.07136
              CHANNELS 3 Zrotation Xrotation Yrotation
              JOINT lThumb1
              {
                OFFSET 1.2192 -0.487915 3.41376
                CHANNELS 3 Zrotation Xrotation Yrotation
                JOINT lThumb2
                {
                  OFFSET 3.37035 -0.52449 3.41376
                  CHANNELS 3 Zrotation Xrotation Yrotation
                  End Site
                  {
                    OFFSET 1.78271 -1.18214 1.43049
                  }
                }
              }
              JOINT lIndex1
              {
                OFFSET 7.75947 0.938293 5.60832
                CHANNELS 3 Zrotation Xrotation Yrotation
                JOINT lIndex2
                {
                  OFFSET 2.54057 -0.884171 1.56538
                  CHANNELS 3 Zrotation Xrotation Yrotation
                  End Site
                  {
                    OFFSET 1.62519 -0.234802 1.16502
                  }
                }
              }
              JOINT lMid1
              {
                OFFSET 8.24714 1.18213 3.41376
                CHANNELS 3 Zrotation Xrotation Yrotation
                JOINT lMid2
                {
                  OFFSET 3.10165 -0.590103 1.0647
                  CHANNELS 3 Zrotation Xrotation Yrotation
                  End Site
                  {
                    OFFSET 2.48547 -0.328903 0.83742
                  }
                }
              }
              JOINT lRing1
              {
                OFFSET 8.82822 0.546677 1.51678
                CHANNELS 3 Zrotation Xrotation Yrotation
                JOINT lRing2
                {
                  OFFSET 2.60934 -0.819778 -0.0198488
                  CHANNELS 3 Zrotation Xrotation Yrotation
                  End Site
                  {
                    OFFSET 2.33842 -0.294052 0.168128
                  }
                }
              }
              JOINT lPinky1
              {
                OFFSET 8.27202 -0.0477905 -0.4584
                CHANNELS 3 Zrotation Xrotation Yrotation
                JOINT lPinky2
                {
                  OFFSET 1.82734 -0.647385 -0.700984
                  CHANNELS 3 Zrotation Xrotation Yrotation
                  End Site
                  {
                    OFFSET 1.69225 -0.51767 -0.607171
                  }
                }
              }
            }
          }
        }
      }
    }
  }
  JOINT rButtock
  {
    OFFSET -8.77824 4.35084 1.2192
    CHANNELS 3 Zrotation Xrotation Yrotation
    JOINT rThigh
    {
      OFFSET 0 -1.70687 -2.19456
      CHANNELS 3 Zrotation Xrotation Yrotation
      JOINT rShin
      {
        OFFSET 0 -36.8199 0.73152
        CHANNELS 3 Zrotation Xrotation Yrotation
        JOINT rFoot
        {
          OFFSET 0.73152 -45.1104 -5.12064
          CHANNELS 3 Zrotation Xrotation Yrotation
          End Site
          {
            OFFSET -1.1221 -3.69964 12.103
          }
        }
      }
    }
  }
  JOINT lButtock
  {
    OFFSET 8.77824 4.35084 1.2192
    CHANNELS 3 Zrotation Xrotation Yrotation
    JOINT lThigh
    {
      OFFSET 0 -1.70687 -2.19456
      CHANNELS 3 Zrotation Xrotation Yrotation
      JOINT lShin
      {
        OFFSET 0 -36.8199 0.73152
        CHANNELS 3 Zrotation Xrotation Yrotation
        JOINT lFoot
        {
          OFFSET -0.73152 -45.1104 -5.12064
          CHANNELS 3 Zrotation Xrotation Yrotation
          End Site
          {
            OFFSET 1.1221 -3.69964 12.103
          }
        }
      }
    }
  }
}
MOTION
Frames:	4
Frame Time:	0.00833333
-9.34794 85.0521 3.6433 9.47453 -0.0375911 -78.7942 2.73185 -2.81097 -3.00164 0.939177 -3.71096 -0.79514 8.45095 -6.98673 6.86074 -9.27028 18.1632 12.8632 -0 0 0 -0 0 0 -1.33213e-014 2.91204e-013 -9.87245e-014 35.2238 61.9816 41.8559 -28.4333 -35.7603 76.608 -1.87223 -35.737 -5.80384 -2.45827e-010 1.28098e-010 3.58638e-010 -4.34165e-010 2.20185e-010 6.10276e-010 -2.45821e-010 1.281e-010 3.58636e-010 7.73091 5.47488 0.417314 -2.45829e-010 1.281e-010 3.58629e-010 2.90554 0.965183 0.102902 -2.45824e-010 1.28101e-010 3.58637e-010 10.2786 0.731801 0.0259123 -2.45832e-010 1.28103e-010 3.58638e-010 2.22167 -0.733487 -0.20892 -1.33136e-014 2.91204e-013 -9.88985e-014 -52.6801 27.3421 -38.8503 23.7303 -18.5973 -48.7889 5.64642 -53.8618 11.0931 4.00615e-010 4.05502e-010 -9.10172e-010 7.25488e-010 6.77664e-010 -1.55025e-009 4.00607e-010 4.05496e-010 -9.10164e-010 -7.73091 5.47488 -0.417314 4.00614e-010 4.055e-010 -9.10171e-010 -2.90554 0.965183 -0.102902 4.00602e-010 4.055e-010 -9.10166e-010 -10.2786 0.731801 -0.0259123 4.00619e-010 4.05503e-010 -9.10171e-010 -2.22167 -0.733487 0.20892 -2.03217e-016 0 -3.88251e-019 3.98042 -13.9991 36.3301 -0.031944 9.43544 -0.0374387 -0.224827 3.14338 -34.0773 2.03217e-016 0 3.88251e-019 1.41442 -13.1083 -22.6902 0.0366828 14.6056 -0.455488 10.0959 -9.40642 33.9358 
-9.43561 85.0794 3.6936 9.63311 -0.077707 -78.2355 2.79076 -2.5113 -3.22322 0.895202 -3.74506 -0.859774 8.64182 -6.87686 7.15948 -9.23954 18.0614 13.3704 -0 0 0 -0 0 0 -9.83089e-016 2.26108e-015 1.12131e-014 33.6588 62.4468 43.5962 -28.4334 -35.6957 76.5003 -1.90798 -36.0196 -5.86472 -5.41674e-010 -2.79128e-010 -4.46187e-010 -9.21072e-010 -4.92221e-010 -7.87179e-010 -5.41667e-010 -2.79127e-010 -4.46197e-010 7.73091 5.47488 0.417314 -5.41676e-010 -2.79126e-010 -4.46199e-010 2.90554 0.965183 0.102902 -5.4167e-010 -2.79126e-010 -4.46192e-010 10.2786 0.731801 0.0259123 -5.41677e-010 -2.79123e-010 -4.46193e-010 2.22167 -0.733487 -0.20892 -9.91236e-016 2.26148e-015 1.10539e-014 -52.0853 25.5245 -40.397 23.5437 -18.2631 -48.2233 6.03001 -54.9759 11.5649 4.843e-010 -1.83728e-010 1.01212e-010 8.2778e-010 -3.51997e-010 1.95373e-010 4.84289e-010 -1.83732e-010 1.01219e-010 -7.73091 5.47488 -0.417314 4.84299e-010 -1.83731e-010 1.01213e-010 -2.90554 0.965183 -0.102902 4.84287e-010 -1.83731e-010 1.01221e-010 -10.2786 0.731801 -0.0259123 4.84305e-010 -1.83727e-010 1.01217e-010 -2.22167 -0.733487 0.20892 -2.03217e-016 0 -3.88251e-019 4.06565 -13.994 36.8921 -0.0307034 8.92712 -0.0508778 0.120192 3.52647 -33.9874 2.03217e-016 0 3.88251e-019 1.77944 -13.3592 -21.355 0.0400805 14.6506 -0.443284 9.72881 -9.21371 33.1735 
-9.52264 85.0921 3.73932 9.79542 -0.0727373 -77.6454 2.79835 -2.23231 -3.38836 0.854033 -3.78112 -0.908264 8.81209 -6.7648 7.42095 -9.22658 17.9514 13.8142 -0 0 0 -0 0 0 3.19308e-015 -1.44914e-013 7.32025e-014 32.2483 62.8657 45.1946 -28.4333 -35.6451 76.4163 -1.9332 -36.2155 -5.90726 -6.65836e-010 -4.77484e-010 -8.45535e-010 -1.12372e-009 -8.39011e-010 -1.47984e-009 -6.65828e-010 -4.77484e-010 -8.4555e-010 7.73091 5.47488 0.417314 -6.65838e-010 -4.77482e-010 -8.45547e-010 2.90554 0.965183 0.102902 -6.65831e-010 -4.77483e-010 -8.45543e-010 10.2786 0.731801 0.0259123 -6.65838e-010 -4.77479e-010 -8.45544e-010 2.22167 -0.733487 -0.20892 3.16824e-015 -1.44914e-013 7.30534e-014 -51.6382 23.8035 -41.825 23.3128 -17.8656 -47.5036 6.30903 -55.729 11.9026 5.16379e-010 -4.62247e-010 5.79169e-010 8.6371e-010 -8.40455e-010 1.02001e-009 5.16366e-010 -4.62252e-010 5.79176e-010 -7.73091 5.47488 -0.417314 5.16376e-010 -4.62252e-010 5.79169e-010 -2.90554 0.965183 -0.102902 5.16366e-010 -4.62252e-010 5.7918e-010 -10.2786 0.731801 -0.0259123 5.16384e-010 -4.62248e-010 5.79176e-010 -2.22167 -0.733487 0.20892 -2.03217e-016 0 -3.88251e-019 4.14574 -14.06 37.4948 -0.0299968 8.54756 -0.0616112 0.392297 3.83408 -33.9375 2.03217e-016 0 3.88251e-019 2.12143 -13.6172 -19.8685 0.0432379 14.7081 -0.431325 9.36244 -9.07303 32.3017 
-9.6145 85.1024 3.78373 9.95671 0.0114277 -77.0147 2.72512 -1.97614 -3.47871 0.808203 -3.81971 -0.935655 8.94613 -6.64568 7.63495 -9.19661 17.8242 14.1747 -0 0 0 -0 0 0 -8.00608e-015 -6.26063e-014 4.43344e-014 31.0909 63.2457 46.566 -28.4332 -35.6199 76.3748 -1.94535 -36.3088 -5.92765 -6.0883e-010 -4.06742e-010 -6.89005e-010 -1.03031e-009 -7.14394e-010 -1.20763e-009 -6.08822e-010 -4.06743e-010 -6.89025e-010 7.73091 5.47488 0.417314 -6.08831e-010 -4.06739e-010 -6.89016e-010 2.90554 0.965183 0.102902 -6.08823e-010 -4.06742e-010 -6.89017e-010 10.2786 0.731801 0.0259123 -6.08831e-010 -4.06738e-010 -6.89012e-010 2.22167 -0.733487 -0.20892 -8.05368e-015 -6.26072e-014 4.41877e-014 -51.3713 22.1322 -43.1579 23.0079 -17.3581 -46.5651 6.42057 -56.0145 12.036 5.18438e-010 -2.29756e-010 1.58947e-010 8.85944e-010 -4.4257e-010 2.96503e-010 5.18425e-010 -2.29761e-010 1.58953e-010 -7.73091 5.47488 -0.417314 5.18435e-010 -2.29765e-010 1.58945e-010 -2.90554 0.965183 -0.102902 5.18427e-010 -2.29761e-010 1.58956e-010 -10.2786 0.731801 -0.0259123 5.18442e-010 -2.29758e-010 1.58952e-010 -2.22167 -0.733487 0.20892 -2.03217e-016 0 -3.88251e-019 4.2213 -14.2266 38.153 -0.0298966 8.36384 -0.0684087 0.55206 4.02408 -33.9459 2.03217e-016 0 3.88251e-019 2.43092 -13.8749 -18.1491 0.04586 14.7692 -0.419192 8.98398 -9.00925 31.2502 
